<mxfile host="app.diagrams.net" modified="2024-07-10T17:18:05.992Z" agent="Mozilla/5.0 (Macintosh; Intel Mac OS X 10_15_7) AppleWebKit/537.36 (KHTML, like Gecko) Chrome/126.0.0.0 Safari/537.36" version="24.6.4" etag="FHYQUtVh__dgCyHTmeQR" type="github">
  <diagram name="Page-1" id="LRPzhhVhqdOzlrvkoaJ_">
    <mxGraphModel>
      <root>
        <mxCell id="0" />
        <mxCell id="1" parent="0" />
      </root>
    </mxGraphModel>
  </diagram>
</mxfile>
